<?xml version="1.0" standalone="no"?>
<!DOCTYPE svg PUBLIC "-//W3C//DTD SVG 20010904//EN"
 "http://www.w3.org/TR/2001/REC-SVG-20010904/DTD/svg10.dtd">
<svg version="1.0" xmlns="http://www.w3.org/2000/svg"
 width="30.000000pt" height="30.000000pt" viewBox="0 0 30.000000 30.000000"
 preserveAspectRatio="xMidYMid meet">
<metadata>
Created by potrace 1.16, written by Peter Selinger 2001-2019
</metadata>
<g transform="translate(0.000000,30.000000) scale(0.005859,-0.005859)"
fill="#000000" stroke="none">
<path d="M2228 4985 c-32 -18 -58 -59 -91 -150 -83 -224 -127 -446 -136 -686
l-6 -167 -74 30 c-148 58 -227 71 -411 65 -327 -10 -625 -87 -827 -213 -252
-157 -400 -409 -442 -749 -38 -308 27 -902 151 -1390 196 -774 529 -1274 945
-1420 173 -60 305 -59 553 6 242 62 292 61 511 -14 144 -49 177 -57 240 -57
83 0 234 33 260 56 15 14 24 13 84 -5 158 -49 253 -63 470 -68 163 -4 236 -1
328 11 230 32 448 101 647 202 113 58 224 124 217 130 -2 2 -46 -16 -98 -40
-597 -277 -1309 -249 -1842 73 -482 291 -836 768 -951 1282 -69 309 -52 644
44 847 115 242 357 331 595 218 47 -22 131 -83 259 -187 103 -85 427 -349 719
-588 502 -410 531 -432 540 -410 22 59 91 367 117 522 72 434 79 770 20 1002
-95 372 -330 600 -741 719 -92 26 -311 66 -365 66 -48 0 -42 16 9 24 23 4 84
27 136 53 127 63 222 156 280 275 47 95 71 181 71 250 l0 48 -287 0 c-330 0
-369 -6 -496 -72 -136 -71 -262 -217 -308 -357 -14 -42 0 83 22 189 11 52 38
156 61 230 58 191 58 181 6 222 -83 68 -150 85 -210 53z"/>
</g>
</svg>
