<?xml version="1.0" standalone="no"?>
<!DOCTYPE svg PUBLIC "-//W3C//DTD SVG 20010904//EN"
 "http://www.w3.org/TR/2001/REC-SVG-20010904/DTD/svg10.dtd">
<svg version="1.0" xmlns="http://www.w3.org/2000/svg"
 width="120.000000pt" height="156.000000pt" viewBox="0 0 120.000000 156.000000"
 preserveAspectRatio="xMidYMid meet">
<metadata>
Created by potrace 1.16, written by Peter Selinger 2001-2019
</metadata>
<g transform="translate(0.000000,156.000000) scale(0.100000,-0.100000)"
fill="#000000" stroke="none">
<path d="M329 1364 c-134 -103 -263 -202 -286 -221 l-43 -34 0 -399 c0 -385 1
-400 19 -410 13 -6 213 -10 579 -10 529 0 560 1 575 18 15 17 17 59 17 403 0
211 -4 390 -9 398 -18 28 -567 440 -587 441 -13 0 -121 -76 -265 -186z m517
-111 l244 -186 0 -344 0 -343 -495 0 -495 0 2 347 3 347 240 183 c131 101 243
183 248 183 5 0 118 -84 253 -187z"/>
<path d="M511 1187 c-19 -6 -55 -30 -80 -54 -24 -24 -53 -43 -63 -43 -28 0
-90 -28 -116 -53 -37 -34 -52 -72 -52 -130 0 -44 6 -62 29 -94 16 -22 43 -47
60 -54 l31 -14 0 -122 c0 -67 3 -128 6 -137 5 -14 39 -16 269 -16 230 0 264 2
269 16 3 9 6 70 6 137 l0 122 30 13 c65 29 106 127 86 206 -14 56 -103 125
-162 126 -11 0 -41 19 -65 43 -66 63 -158 83 -248 54z m175 -66 c18 -11 44
-35 59 -55 22 -29 34 -36 62 -36 67 0 133 -59 133 -120 0 -42 -36 -89 -85
-110 -45 -19 -45 -20 -45 -70 l0 -50 -215 0 -215 0 0 50 c0 50 0 51 -44 70
-48 20 -72 49 -82 97 -13 63 54 133 127 133 30 0 41 6 64 36 42 55 81 74 150
74 41 0 70 -6 91 -19z m124 -546 l0 -45 -215 0 -215 0 0 45 0 45 215 0 215 0
0 -45z"/>
<path d="M770 222 c-34 -11 -50 -35 -50 -77 0 -50 22 -75 68 -75 52 0 83 51
65 107 -10 28 -56 54 -83 45z"/>
<path d="M918 218 c-18 -6 -31 -21 -38 -42 -18 -56 13 -106 65 -106 54 0 81
53 61 117 -9 27 -52 43 -88 31z"/>
<path d="M1040 145 l0 -75 38 0 c47 0 79 21 87 59 6 30 -7 69 -29 83 -6 4 -30
8 -53 8 l-43 0 0 -75z"/>
</g>
</svg>
